<svg id="Layer_1" data-name="Layer 1" xmlns="http://www.w3.org/2000/svg" viewBox="0 0 34 33.99"><defs><style>.cls-1{fill:#00519e;} .cls-2{fill: #f2a500;}</style></defs><title>logo</title><path class="cls-2" d="M532.07,604.07l0.14,0a16.82,16.82,0,0,1,11,4.73l0.12,0.09-6.57,11.21-9.05-15.63,0.44-.1a16.37,16.37,0,0,1,2.54-.3l0.15,0h1.19Z" transform="translate(-514.45 -604.07)"/><path class="cls-2" d="M514.45,620.47c0-.12,0-0.24,0-0.36a16.7,16.7,0,0,1,.4-2.84l0-.17v0c0.1,0,12.78,0,13,0L519,632.64l-0.1-.1a16.89,16.89,0,0,1-4-7.54,16.49,16.49,0,0,1-.43-3c0-.11,0-0.22,0-0.33v-1.22Z" transform="translate(-514.45 -604.07)"/><path class="cls-1" d="M515.25,616a17,17,0,0,1,11.48-11.27L533.25,616h-18Z" transform="translate(-514.45 -604.07)"/><path class="cls-1" d="M544.09,609.69a17,17,0,0,1,3.92,7.48,17.22,17.22,0,0,1-.09,8.11H535Z" transform="translate(-514.45 -604.07)"/><path class="cls-2" d="M529.71,626.31h17.92A17,17,0,0,1,536,637.43Z" transform="translate(-514.45 -604.07)"/><path class="cls-1" d="M526.18,622.17l8.83,15.5a17,17,0,0,1-4.08.39,17.48,17.48,0,0,1-4.06-.63,17,17,0,0,1-7.09-4Z" transform="translate(-514.45 -604.07)"/></svg>
